<svg id="Group_712" data-name="Group 712" xmlns="http://www.w3.org/2000/svg" xmlns:xlink="http://www.w3.org/1999/xlink" width="65.586" height="65.586" viewBox="0 0 65.586 65.586">
  <defs>
    <linearGradient id="linear-gradient" x1="0.5" x2="0.5" y2="1" gradientUnits="objectBoundingBox">
      <stop offset="0" stop-color="#c94072"/>
      <stop offset="1" stop-color="#f6c671"/>
    </linearGradient>
  </defs>
  <path id="Path_108" data-name="Path 108" d="M234.918,194.091h0A32.792,32.792,0,0,1,202.126,161.3h0a32.793,32.793,0,0,1,32.792-32.794h0A32.793,32.793,0,0,1,267.712,161.3h0A32.793,32.793,0,0,1,234.918,194.091Z" transform="translate(-202.126 -128.505)" fill="url(#linear-gradient)"/>
  <g id="Group_157" data-name="Group 157" transform="translate(14.813 14.813)">
    <path id="Path_109" data-name="Path 109" d="M228.7,140.341c4.8,0,5.369.019,7.267.105a9.962,9.962,0,0,1,3.338.62,5.943,5.943,0,0,1,3.412,3.412,9.961,9.961,0,0,1,.62,3.338c.086,1.9.105,2.466.105,7.267s-.019,5.369-.105,7.265a9.964,9.964,0,0,1-.62,3.34,5.943,5.943,0,0,1-3.412,3.412,9.929,9.929,0,0,1-3.338.619c-1.9.086-2.464.105-7.267.105s-5.369-.019-7.265-.105a9.942,9.942,0,0,1-3.34-.619,5.956,5.956,0,0,1-3.412-3.412,9.931,9.931,0,0,1-.619-3.34c-.086-1.9-.105-2.464-.105-7.265s.019-5.369.105-7.267a9.929,9.929,0,0,1,.619-3.338,5.956,5.956,0,0,1,3.412-3.412,9.975,9.975,0,0,1,3.34-.62c1.9-.086,2.464-.105,7.265-.105m0-3.24c-4.883,0-5.5.022-7.413.109a13.22,13.22,0,0,0-4.365.836,9.195,9.195,0,0,0-5.257,5.259,13.166,13.166,0,0,0-.836,4.365c-.088,1.918-.109,2.53-.109,7.413s.021,5.5.109,7.413a13.165,13.165,0,0,0,.836,4.365,9.195,9.195,0,0,0,5.257,5.259,13.266,13.266,0,0,0,4.365.836c1.918.086,2.53.107,7.413.107s5.5-.021,7.413-.107a13.256,13.256,0,0,0,4.365-.836,9.2,9.2,0,0,0,5.259-5.259,13.209,13.209,0,0,0,.836-4.365c.088-1.918.109-2.53.109-7.413s-.021-5.5-.109-7.413a13.21,13.21,0,0,0-.836-4.365,9.2,9.2,0,0,0-5.259-5.259,13.211,13.211,0,0,0-4.365-.836c-1.918-.086-2.53-.109-7.413-.109" transform="translate(-210.722 -137.101)" fill="#fff"/>
    <path id="Path_110" data-name="Path 110" d="M225.031,142.178a9.233,9.233,0,1,0,9.233,9.233,9.233,9.233,0,0,0-9.233-9.233m0,15.226a5.993,5.993,0,1,1,5.993-5.993,5.993,5.993,0,0,1-5.993,5.993" transform="translate(-207.051 -133.429)" fill="#fff"/>
    <path id="Path_111" data-name="Path 111" d="M229.789,142.871a2.157,2.157,0,1,1-2.157-2.157,2.157,2.157,0,0,1,2.157,2.157" transform="translate(-200.053 -134.488)" fill="#fff"/>
  </g>
</svg>
